<svg width="10" height="14" viewBox="0 0 10 14" fill="none" xmlns="http://www.w3.org/2000/svg">
<g id="xmark-solid 1">
<path id="Vector" d="M8.92204 4.32384C9.24756 4.00646 9.24756 3.49103 8.92204 3.17365C8.59652 2.85626 8.06787 2.85626 7.74235 3.17365L5.00016 5.84982L2.25537 3.17618C1.92985 2.8588 1.4012 2.8588 1.07568 3.17618C0.750163 3.49357 0.750163 4.009 1.07568 4.32638L3.82048 7.00001L1.07829 9.67618C0.752767 9.99357 0.752767 10.509 1.07829 10.8264C1.40381 11.1438 1.93245 11.1438 2.25798 10.8264L5.00016 8.15021L7.74495 10.8238C8.07048 11.1412 8.59912 11.1412 8.92464 10.8238C9.25016 10.5065 9.25016 9.99103 8.92464 9.67365L6.17985 7.00001L8.92204 4.32384Z" fill="black"/>
</g>
</svg>
